<mxfile host="app.diagrams.net" modified="2021-09-23T14:11:33.585Z" agent="5.0 (Windows NT 10.0; Win64; x64) AppleWebKit/537.36 (KHTML, like Gecko) Chrome/93.0.4577.82 Safari/537.36 Edg/93.0.961.52" etag="IGFT4RCtXUO_X1Jvdjpg" version="15.3.0" type="github">
  <diagram id="Y3HFEVaSzMqXmTf1_F9i" name="หน้า-1">
    <mxGraphModel dx="1024" dy="603" grid="1" gridSize="10" guides="1" tooltips="1" connect="1" arrows="1" fold="1" page="1" pageScale="1" pageWidth="850" pageHeight="1100" math="0" shadow="0">
      <root>
        <mxCell id="0" />
        <mxCell id="1" parent="0" />
        <mxCell id="2EW2_AvGA1C7KT9FpkmK-1" style="edgeStyle=orthogonalEdgeStyle;rounded=0;orthogonalLoop=1;jettySize=auto;html=1;exitX=1;exitY=0.5;exitDx=0;exitDy=0;entryX=0;entryY=0.5;entryDx=0;entryDy=0;" edge="1" parent="1" source="2EW2_AvGA1C7KT9FpkmK-3" target="2EW2_AvGA1C7KT9FpkmK-8">
          <mxGeometry relative="1" as="geometry" />
        </mxCell>
        <mxCell id="2EW2_AvGA1C7KT9FpkmK-2" style="edgeStyle=orthogonalEdgeStyle;rounded=0;orthogonalLoop=1;jettySize=auto;html=1;exitX=0.5;exitY=1;exitDx=0;exitDy=0;entryX=0.5;entryY=0;entryDx=0;entryDy=0;" edge="1" parent="1" source="2EW2_AvGA1C7KT9FpkmK-3" target="2EW2_AvGA1C7KT9FpkmK-16">
          <mxGeometry relative="1" as="geometry" />
        </mxCell>
        <mxCell id="2EW2_AvGA1C7KT9FpkmK-3" value="เริ่มต้น" style="rounded=1;whiteSpace=wrap;html=1;" vertex="1" parent="1">
          <mxGeometry x="340" y="50" width="120" height="60" as="geometry" />
        </mxCell>
        <mxCell id="2EW2_AvGA1C7KT9FpkmK-4" style="edgeStyle=orthogonalEdgeStyle;rounded=0;orthogonalLoop=1;jettySize=auto;html=1;exitX=1;exitY=0.5;exitDx=0;exitDy=0;entryX=0;entryY=0.5;entryDx=0;entryDy=0;" edge="1" parent="1" source="2EW2_AvGA1C7KT9FpkmK-8" target="2EW2_AvGA1C7KT9FpkmK-9">
          <mxGeometry relative="1" as="geometry" />
        </mxCell>
        <mxCell id="2EW2_AvGA1C7KT9FpkmK-5" style="edgeStyle=orthogonalEdgeStyle;rounded=0;orthogonalLoop=1;jettySize=auto;html=1;exitX=1;exitY=0.5;exitDx=0;exitDy=0;entryX=0;entryY=0.5;entryDx=0;entryDy=0;" edge="1" parent="1" source="2EW2_AvGA1C7KT9FpkmK-8" target="2EW2_AvGA1C7KT9FpkmK-10">
          <mxGeometry relative="1" as="geometry" />
        </mxCell>
        <mxCell id="2EW2_AvGA1C7KT9FpkmK-6" style="edgeStyle=orthogonalEdgeStyle;rounded=0;orthogonalLoop=1;jettySize=auto;html=1;exitX=1;exitY=0.5;exitDx=0;exitDy=0;entryX=0;entryY=0.5;entryDx=0;entryDy=0;" edge="1" parent="1" source="2EW2_AvGA1C7KT9FpkmK-8" target="2EW2_AvGA1C7KT9FpkmK-11">
          <mxGeometry relative="1" as="geometry" />
        </mxCell>
        <mxCell id="2EW2_AvGA1C7KT9FpkmK-7" style="edgeStyle=orthogonalEdgeStyle;rounded=0;orthogonalLoop=1;jettySize=auto;html=1;exitX=1;exitY=0.5;exitDx=0;exitDy=0;entryX=0;entryY=0.5;entryDx=0;entryDy=0;" edge="1" parent="1" source="2EW2_AvGA1C7KT9FpkmK-8" target="2EW2_AvGA1C7KT9FpkmK-12">
          <mxGeometry relative="1" as="geometry" />
        </mxCell>
        <mxCell id="2EW2_AvGA1C7KT9FpkmK-8" value="home page" style="rounded=1;whiteSpace=wrap;html=1;" vertex="1" parent="1">
          <mxGeometry x="630" y="55" width="110" height="50" as="geometry" />
        </mxCell>
        <mxCell id="2EW2_AvGA1C7KT9FpkmK-9" value="playlist page" style="rounded=1;whiteSpace=wrap;html=1;" vertex="1" parent="1">
          <mxGeometry x="820" y="55" width="110" height="50" as="geometry" />
        </mxCell>
        <mxCell id="2EW2_AvGA1C7KT9FpkmK-10" value="notification page" style="rounded=1;whiteSpace=wrap;html=1;" vertex="1" parent="1">
          <mxGeometry x="820" y="125" width="110" height="50" as="geometry" />
        </mxCell>
        <mxCell id="2EW2_AvGA1C7KT9FpkmK-11" value="play page" style="rounded=1;whiteSpace=wrap;html=1;" vertex="1" parent="1">
          <mxGeometry x="820" y="190" width="110" height="50" as="geometry" />
        </mxCell>
        <mxCell id="2EW2_AvGA1C7KT9FpkmK-12" value="user page" style="rounded=1;whiteSpace=wrap;html=1;" vertex="1" parent="1">
          <mxGeometry x="820" y="260" width="110" height="50" as="geometry" />
        </mxCell>
        <mxCell id="2EW2_AvGA1C7KT9FpkmK-13" value="&lt;h1&gt;DTAPP flow v.0.0.1&lt;/h1&gt;&lt;p&gt;dev flow diagrams&lt;/p&gt;" style="text;html=1;strokeColor=none;fillColor=none;spacing=5;spacingTop=-20;whiteSpace=wrap;overflow=hidden;rounded=0;" vertex="1" parent="1">
          <mxGeometry x="10" y="20" width="190" height="120" as="geometry" />
        </mxCell>
        <mxCell id="2EW2_AvGA1C7KT9FpkmK-14" value="" style="edgeStyle=orthogonalEdgeStyle;rounded=0;orthogonalLoop=1;jettySize=auto;html=1;" edge="1" parent="1" source="2EW2_AvGA1C7KT9FpkmK-16" target="2EW2_AvGA1C7KT9FpkmK-17">
          <mxGeometry relative="1" as="geometry">
            <Array as="points">
              <mxPoint x="400" y="240" />
              <mxPoint x="240" y="240" />
            </Array>
          </mxGeometry>
        </mxCell>
        <mxCell id="2EW2_AvGA1C7KT9FpkmK-15" value="" style="edgeStyle=orthogonalEdgeStyle;rounded=0;orthogonalLoop=1;jettySize=auto;html=1;" edge="1" parent="1" source="2EW2_AvGA1C7KT9FpkmK-16" target="2EW2_AvGA1C7KT9FpkmK-18">
          <mxGeometry relative="1" as="geometry">
            <Array as="points">
              <mxPoint x="400" y="280" />
              <mxPoint x="400" y="280" />
            </Array>
          </mxGeometry>
        </mxCell>
        <mxCell id="2EW2_AvGA1C7KT9FpkmK-16" value="home page" style="rounded=1;whiteSpace=wrap;html=1;" vertex="1" parent="1">
          <mxGeometry x="340" y="150" width="120" height="60" as="geometry" />
        </mxCell>
        <mxCell id="2EW2_AvGA1C7KT9FpkmK-17" value="search page" style="rounded=1;whiteSpace=wrap;html=1;" vertex="1" parent="1">
          <mxGeometry x="170" y="310" width="120" height="60" as="geometry" />
        </mxCell>
        <mxCell id="2EW2_AvGA1C7KT9FpkmK-18" value="playlist page" style="rounded=1;whiteSpace=wrap;html=1;" vertex="1" parent="1">
          <mxGeometry x="340" y="310" width="120" height="60" as="geometry" />
        </mxCell>
      </root>
    </mxGraphModel>
  </diagram>
</mxfile>
